<svg width="31" height="28" viewBox="0 0 31 28" fill="none" xmlns="http://www.w3.org/2000/svg">
<path d="M25.7083 9.66666C24.493 9.66666 23.46 9.24132 22.6093 8.39062C21.7586 7.53993 21.3333 6.50694 21.3333 5.29166C21.3333 4.07639 21.7586 3.0434 22.6093 2.19271C23.46 1.34201 24.493 0.916664 25.7083 0.916664C26.9236 0.916664 27.9566 1.34201 28.8072 2.19271C29.6579 3.0434 30.0833 4.07639 30.0833 5.29166C30.0833 6.50694 29.6579 7.53993 28.8072 8.39062C27.9566 9.24132 26.9236 9.66666 25.7083 9.66666ZM3.83329 27.1667C3.03121 27.1667 2.34458 26.8811 1.7734 26.3099C1.20222 25.7387 0.916626 25.0521 0.916626 24.25V6.75C0.916626 5.94791 1.20222 5.26128 1.7734 4.6901C2.34458 4.11892 3.03121 3.83333 3.83329 3.83333H18.5625C18.4652 4.31944 18.4166 4.80555 18.4166 5.29166C18.4166 5.77778 18.4652 6.26389 18.5625 6.75C18.7326 7.52778 19.0121 8.25087 19.401 8.91927C19.7899 9.58767 20.2638 10.1771 20.8229 10.6875L15.5 14.0417L3.83329 6.75V9.66666L15.5 16.9583L23.1927 12.1458C23.6059 12.2917 24.0191 12.401 24.4322 12.474C24.8454 12.5469 25.2708 12.5833 25.7083 12.5833C26.4861 12.5833 27.2517 12.4618 28.0052 12.2187C28.7586 11.9757 29.4513 11.6111 30.0833 11.125V24.25C30.0833 25.0521 29.7977 25.7387 29.2265 26.3099C28.6553 26.8811 27.9687 27.1667 27.1666 27.1667H3.83329Z" fill="#F98948"/>
</svg>
