<svg width="29" height="28" viewBox="0 0 29 28" fill="none" xmlns="http://www.w3.org/2000/svg">
<path d="M19.6667 9.33334C21.7221 9.33334 23.6934 10.1499 25.1468 11.6033C26.6002 13.0567 27.4167 15.0279 27.4167 17.0833V26.125H22.25V17.0833C22.25 16.3982 21.9779 15.7411 21.4934 15.2566C21.0089 14.7722 20.3518 14.5 19.6667 14.5C18.9816 14.5 18.3245 14.7722 17.84 15.2566C17.3555 15.7411 17.0834 16.3982 17.0834 17.0833V26.125H11.9167V17.0833C11.9167 15.0279 12.7332 13.0567 14.1866 11.6033C15.64 10.1499 17.6113 9.33334 19.6667 9.33334Z" stroke="#F98948" stroke-width="2" stroke-linecap="round" stroke-linejoin="round"/>
<path d="M6.75004 10.625H1.58337V26.125H6.75004V10.625Z" stroke="#F98948" stroke-width="2" stroke-linecap="round" stroke-linejoin="round"/>
<path d="M4.16671 6.75C5.59344 6.75 6.75004 5.5934 6.75004 4.16667C6.75004 2.73993 5.59344 1.58334 4.16671 1.58334C2.73997 1.58334 1.58337 2.73993 1.58337 4.16667C1.58337 5.5934 2.73997 6.75 4.16671 6.75Z" stroke="#F98948" stroke-width="2" stroke-linecap="round" stroke-linejoin="round"/>
</svg>
